<?xml version="1.0" standalone="no"?>
<!DOCTYPE svg PUBLIC "-//W3C//DTD SVG 20010904//EN"
 "http://www.w3.org/TR/2001/REC-SVG-20010904/DTD/svg10.dtd">
<svg version="1.0" xmlns="http://www.w3.org/2000/svg" viewBox="0 0 576.000000 576.000000"
 preserveAspectRatio="xMidYMid meet">
<metadata>
Created by potrace 1.10, written by Peter Selinger 2001-2011
</metadata>
<g transform="translate(0.000000,576.000000) scale(0.100000,-0.100000)"
fill="#ffffff" stroke="none">
<path d="M2490 5658 c-58 -5 -150 -20 -205 -33 -55 -14 -110 -25 -122 -25 -12
0 -42 -6 -65 -13 -327 -103 -302 -94 -388 -135 -36 -17 -90 -42 -120 -56 -30
-14 -77 -39 -105 -55 -27 -17 -70 -42 -95 -56 -122 -70 -271 -177 -405 -292
-117 -100 -317 -315 -385 -413 -14 -19 -34 -46 -46 -60 -20 -23 -144 -217
-144 -225 0 -1 -17 -32 -38 -66 -33 -56 -54 -98 -117 -234 -7 -16 -17 -41 -20
-55 -4 -14 -17 -47 -30 -75 -21 -44 -37 -91 -75 -220 -109 -370 -130 -836 -59
-1300 6 -38 17 -92 24 -120 8 -27 22 -77 30 -110 31 -112 56 -190 81 -243 13
-29 24 -58 24 -64 0 -12 14 -45 71 -164 16 -34 29 -64 29 -67 0 -19 175 -291
263 -408 111 -149 343 -395 434 -461 17 -13 67 -50 110 -83 134 -104 308 -212
453 -282 30 -14 80 -39 110 -54 30 -15 80 -35 110 -44 30 -9 91 -29 135 -45
108 -38 183 -60 206 -60 10 0 74 -13 141 -29 102 -24 162 -31 355 -41 127 -7
247 -10 265 -6 18 3 93 10 167 16 74 6 180 22 235 35 56 13 121 28 146 33 202
44 577 199 749 311 30 19 67 42 83 51 77 42 316 240 437 361 163 164 173 176
169 196 -2 9 -16 21 -33 26 -16 5 -43 19 -60 32 -16 12 -57 32 -90 45 -33 14
-76 34 -95 46 -19 11 -53 29 -75 38 -22 10 -47 22 -55 27 -8 5 -62 32 -120 59
-58 28 -112 55 -120 60 -36 23 -163 80 -179 80 -9 0 -51 -28 -93 -62 -106 -87
-163 -128 -223 -162 -27 -15 -62 -37 -77 -47 -14 -10 -33 -19 -42 -19 -9 0
-54 -20 -99 -44 -79 -42 -112 -54 -317 -110 -193 -53 -572 -60 -790 -16 -58
12 -109 25 -115 30 -5 4 -30 11 -55 15 -24 4 -51 11 -60 15 -8 4 -71 31 -140
59 -69 29 -132 56 -140 61 -8 5 -46 29 -85 52 -168 101 -428 326 -480 416 -11
17 -23 32 -26 32 -24 0 -269 425 -269 466 0 7 -9 31 -20 52 -11 21 -27 69 -34
105 -8 36 -16 70 -19 75 -4 4 -11 35 -16 68 -6 32 -17 91 -25 129 -32 164 -28
439 9 606 42 188 67 284 85 322 10 23 30 71 45 107 14 36 31 74 37 85 7 11 31
54 54 95 97 175 213 318 393 484 36 32 79 69 97 81 18 12 49 35 71 51 21 16
58 40 83 53 25 13 59 34 77 47 17 13 34 24 38 24 3 0 65 25 137 56 72 31 154
62 182 70 28 7 83 22 123 33 138 38 440 52 641 30 170 -18 403 -84 530 -149
42 -22 84 -40 93 -40 9 0 27 -8 40 -18 13 -10 51 -34 84 -52 33 -19 80 -50
105 -70 25 -21 59 -45 77 -56 l32 -18 103 68 c154 102 493 324 581 380 76 49
94 75 63 93 -7 4 -51 43 -97 85 -102 93 -215 188 -224 188 -4 0 -34 20 -66 45
-33 25 -61 45 -64 45 -2 0 -29 16 -59 35 -98 63 -362 190 -456 220 -30 10 -81
29 -113 41 -57 24 -153 48 -382 98 -149 32 -537 45 -775 24z"/>
<path d="M4810 3851 l-45 -6 0 -270 0 -270 26 -9 c16 -5 81 -5 165 0 113 7
139 12 139 24 0 12 -22 16 -116 20 -146 6 -159 14 -159 102 0 87 17 114 79
122 28 4 62 4 76 0 38 -10 75 3 75 26 0 19 -7 20 -94 20 -90 0 -96 1 -115 26
-28 36 -29 112 -1 147 20 25 26 26 133 29 104 3 112 4 112 23 0 19 -7 20 -115
21 -63 1 -135 -1 -160 -5z"/>
<path d="M5270 3576 c0 -210 3 -275 13 -278 6 -2 73 -4 147 -3 118 0 140 3
175 22 52 28 75 68 75 132 0 49 -3 54 -50 99 -27 26 -50 52 -50 57 0 6 14 30
30 55 37 55 38 86 5 130 -40 55 -56 59 -207 60 l-138 0 0 -274z m282 195 c26
-29 29 -38 23 -69 -14 -77 -37 -92 -142 -92 -89 0 -103 13 -103 97 0 91 17
106 117 101 70 -3 77 -6 105 -37z m32 -244 c25 -28 28 -36 24 -84 -7 -86 -26
-98 -147 -98 -127 0 -131 3 -131 105 0 109 17 121 155 112 62 -4 73 -8 99 -35z"/>
<path d="M2051 3596 c-9 -11 -7 -31 9 -87 12 -41 26 -90 31 -109 6 -19 14 -44
18 -55 4 -11 18 -63 31 -115 12 -52 32 -124 44 -160 13 -36 31 -99 40 -140 10
-41 30 -118 46 -170 16 -52 43 -149 60 -214 17 -66 37 -133 45 -149 8 -17 15
-38 15 -48 0 -21 40 -176 65 -254 9 -27 29 -101 45 -163 15 -63 31 -116 34
-120 20 -19 386 -31 414 -13 15 9 96 273 122 398 5 23 22 83 39 135 16 51 37
127 46 168 10 41 30 114 46 161 16 48 29 95 29 106 0 44 51 58 72 21 7 -13 20
-50 29 -83 10 -33 29 -100 43 -150 14 -49 30 -110 36 -135 6 -25 23 -88 39
-140 17 -52 37 -122 46 -155 9 -33 29 -103 45 -155 15 -52 31 -109 35 -127 3
-17 12 -37 19 -43 15 -12 358 -12 392 1 26 9 35 32 75 194 17 72 37 141 44
155 7 14 23 70 35 125 13 55 26 109 31 120 4 11 24 81 44 155 20 74 47 171 60
215 14 44 29 98 35 120 16 68 32 127 56 205 12 41 32 111 44 155 12 44 31 112
42 150 46 159 51 184 39 199 -8 10 -52 14 -184 15 -94 0 -178 -3 -186 -8 -18
-12 -55 -142 -105 -376 -8 -38 -23 -95 -32 -125 -8 -30 -22 -82 -29 -115 -34
-153 -46 -204 -61 -255 -9 -30 -22 -82 -29 -115 -55 -251 -60 -265 -95 -265
-28 0 -57 44 -65 97 -4 27 -18 89 -31 138 -14 50 -33 126 -45 170 -11 44 -24
96 -28 115 -5 19 -19 71 -31 115 -25 91 -30 113 -61 245 -12 52 -28 109 -34
125 -7 17 -18 55 -25 85 -39 171 -37 170 -180 170 -129 0 -141 -7 -156 -95 -7
-38 -21 -97 -32 -130 -11 -33 -30 -103 -42 -155 -11 -52 -32 -131 -45 -175
-13 -44 -29 -102 -35 -130 -25 -117 -40 -173 -60 -230 -21 -61 -26 -78 -54
-220 -18 -89 -37 -125 -66 -125 -22 0 -60 49 -60 80 0 28 -36 188 -62 272 -11
37 -26 98 -33 135 -15 74 -32 145 -65 268 -12 44 -26 98 -30 120 -23 115 -40
186 -59 245 -11 36 -21 75 -21 87 0 45 -31 53 -216 53 -134 0 -174 -3 -183
-14z"/>
</g>
</svg>
